<?xml version="1.0" encoding="UTF-8" standalone="no"?>
<!-- Created with Inkscape (http://www.inkscape.org/) -->

<svg
   width="5.0000124mm"
   height="4.2061501mm"
   viewBox="0 0 5.0000124 4.2061501"
   version="1.1"
   id="svg3589"
   xmlns="http://www.w3.org/2000/svg"
   xmlns:svg="http://www.w3.org/2000/svg">
  <defs
     id="defs3586" />
  <path
     d="m 0.518156,0.27091 c -0.10548055,0 -0.18203333,0.0673806 -0.19720277,0.10371666 C 0.26556712,0.50585999 0.25075045,0.7771461 0.29731712,0.80713221 0.492756,0.83676554 0.82824766,0.65684888 0.85329488,0.56265722 0.88257544,0.451885 0.75310599,0.34040722 0.610231,0.28819611 V 0.28784333 C 0.57777544,0.27620167 0.54708378,0.27091 0.518156,0.27091 M 0.33612267,1.0801822 0.26133378,1.0748905 C 0.17349212,1.0618378 0.10046712,1.010685 0.05566434,0.93060443 -0.05722454,0.7295211 0.02955879,0.37039333 0.0722449,0.26949889 0.14385879,0.10016556 0.40279767,-0.07622333 0.70336433,0.03454889 1.0085171,0.14673222 1.1771449,0.39261833 1.1139977,0.63144888 1.0512032,0.86992665 0.62681155,1.0801822 0.33612267,1.0801822 M 1.9843004,2.4514294 c -0.035983,0 -0.051153,0.015875 -0.057503,0.022225 -0.044097,0.046214 -0.050094,0.1569861 -0.014111,0.2525889 0.017992,0.047272 0.072672,0.1576916 0.1940278,0.168275 0.062794,0.00529 0.2109611,0.00741 0.2293055,-0.084314 C 2.3578921,2.7033127 2.2319504,2.5241016 2.0435671,2.4623655 l -0.059267,-0.010936 m 0.1735667,0.6251222 -0.066675,-0.00318 C 1.9366754,3.0603238 1.8068532,2.9541377 1.7447643,2.7900961 1.6819699,2.6246433 1.7027838,2.4475488 1.7966226,2.3494766 1.8393087,2.3046738 1.9352643,2.2376461 2.099306,2.2912683 2.3621254,2.3769933 2.5550948,2.6362849 2.5124087,2.8461877 2.5011198,2.9026322 2.442206,3.0765516 2.1578671,3.0765516 M 3.2553587,1.067835 c -0.013053,0 -0.081139,0.02928 -0.1710972,0.1213555 -0.1199444,0.1224139 -0.1993194,0.27305 -0.1929694,0.3658306 0.00423,0.062794 0.059619,0.092075 0.1051277,0.1054805 0.111125,0.032456 0.2504723,-3.527e-4 0.3037417,-0.071967 C 3.3537835,1.5165676 3.3657785,1.359229 3.3283835,1.2142374 3.3036893,1.1179294 3.2677059,1.0731266 3.2553587,1.067835 M 3.0884948,1.8527655 c -0.050447,0 -0.099483,-0.0067 -0.142875,-0.019403 C 2.8076837,1.7924405 2.7201948,1.6929572 2.7113754,1.5670155 2.6979698,1.366285 2.8740059,1.1158128 3.0465143,0.98140443 3.1491726,0.90132387 3.2384254,0.87274888 3.3118032,0.89673776 3.4091698,0.92848776 3.4631448,1.0403183 3.4910143,1.1285128 3.545342,1.2992572 3.5538087,1.5497294 3.4444476,1.6961322 3.3629559,1.8058461 3.2207865,1.8527655 3.0884948,1.8527655 m 0.2226028,0.43815 c -0.077258,0 -0.1502833,0.041275 -0.1954389,0.1104195 -0.039158,0.059972 -0.049036,0.1287638 -0.026105,0.1806222 0.060325,0.1361722 0.3118555,0.3167944 0.4561416,0.327025 0.095603,0.0067 0.2099028,-0.01905 0.2518833,-0.2804584 C 3.8063976,2.5756072 3.7901698,2.5262183 3.748542,2.4771822 3.650117,2.3621766 3.4451532,2.2909155 3.3110976,2.2909155 M 3.5658032,3.0896044 3.532642,3.0881933 C 3.319917,3.0733766 3.0133532,2.8543016 2.9248059,2.6546294 2.8771809,2.5463266 2.8919976,2.4150933 2.9650226,2.3032627 3.0433393,2.1829655 3.1728087,2.1109988 3.3110976,2.1109988 c 0.1753306,0 0.4360333,0.087489 0.5743222,0.2494139 0.075847,0.089253 0.1068917,0.1915584 0.089958,0.2966861 C 3.9164643,3.0250461 3.7062087,3.0896044 3.5658032,3.0896044 M 2.2968615,0.37886 c -0.2271889,0 -0.5443361,0.11288888 -0.5725583,0.18379722 C 1.7091338,0.75068777 1.6459865,0.94400999 1.5380365,1.1330989 1.4854726,1.2255266 1.369056,1.302785 1.2342949,1.3920378 1.1602115,1.4410739 1.0360338,1.5236239 1.0131032,1.5603127 0.90832821,1.75681 0.80955044,2.0411488 0.87798933,2.1935488 c 0.0391583,0.087489 0.11712222,0.1315862 0.20743337,0.1827389 0.1051277,0.05962 0.2240138,0.1266473 0.2719916,0.2705806 0.025753,0.076906 0.036689,0.1562805 0.047625,0.2331861 0.017286,0.1273528 0.032808,0.2370666 0.104775,0.3171472 0.123825,0.1379361 0.7609417,0.6942667 1.3924139,0.6942667 0.3118555,0 0.3266722,-0.047978 0.34925,-0.1195917 C 3.2779362,3.6875626 3.3178002,3.5602099 3.4871337,3.4706044 3.6360059,3.3919344 3.7457198,3.3658294 3.8339143,3.3453683 3.9344559,3.3213793 4.0007781,3.3062103 4.110492,3.2158988 4.193748,3.1474598 4.2202059,3.0931322 4.2508976,3.0299849 4.2971116,2.9350879 4.3546142,2.8165544 4.5666337,2.7202461 c 0.0127,-0.0067 0.05715,-0.062442 0.088194,-0.2197806 0.073378,-0.3735917 3.528e-4,-0.8787694 -0.065264,-0.9584972 -0.046214,-0.055739 -0.073025,-0.056797 -0.1524,-0.058914 C 4.3521448,1.4802322 4.2353754,1.4763516 4.1179004,1.3775739 4.0304115,1.3038433 3.9651476,1.163085 3.8829504,0.98493221 3.7869948,0.77820443 3.6423559,0.46564333 3.5026559,0.43706833 3.3626032,0.40849333 3.2645309,0.45400166 3.1611671,0.50162666 3.0578032,0.55030999 2.9406809,0.60463777 2.7995698,0.56653777 2.7082004,0.54149055 2.6302365,0.50127388 2.5614448,0.46599611 2.4669004,0.41731277 2.3921115,0.37886 2.2968615,0.37886 M 2.9022282,4.206146 C 2.1606893,4.206146 1.4618365,3.6148905 1.2755699,3.4081627 1.1390449,3.2564683 1.1132921,3.0716127 1.092831,2.9234461 1.0840115,2.8578294 1.0751921,2.7957405 1.0589643,2.7467044 1.0490865,2.7174238 0.99158377,2.6849683 0.93055321,2.6503961 0.82154488,2.5886599 0.67231989,2.5043461 0.59047544,2.3223127 0.45500878,2.0199822 0.62328378,1.6216961 0.73581988,1.4110878 0.79050044,1.3084294 0.92173377,1.2216461 1.0603754,1.1299239 1.1288143,1.0844155 1.2431143,1.0082155 1.2653393,0.97575998 1.3496532,0.8279461 1.3990421,0.6787211 1.4110365,0.53302388 1.4410226,0.17530722 2.070731,0.06382945 2.2968615,0.06382945 c 0.17145,0 0.2973917,0.06491111 0.4085167,0.12206111 0.060325,0.0310444 0.117475,0.060325 0.1770944,0.0769056 0.029281,0.008114 0.083256,-0.0172861 0.1456972,-0.0462139 0.1248834,-0.0582083 0.2956278,-0.1379361 0.5379861,-0.0878417 0.2956278,0.0606778 0.4656667,0.42862499 0.6025445,0.72389998 0.049389,0.10724444 0.117475,0.25399996 0.1520472,0.28398606 0.031044,0.026106 0.056444,0.029281 0.1266472,0.031397 0.098778,0.00318 0.2483556,0.00776 0.3848805,0.1732139 C 5.0033726,1.5486711 5.0428837,2.2214183 4.9539837,2.6066516 4.9056531,2.8169072 4.8188698,2.9516683 4.6968087,3.0070544 4.5885059,3.0564433 4.5712198,3.0913683 4.5341781,3.167921 4.4971365,3.2437683 4.447042,3.3471322 4.310517,3.4593155 4.1440059,3.5958405 4.0230031,3.6244155 3.9062337,3.6519321 3.8247417,3.6709821 3.7474837,3.6889741 3.634242,3.7489461 3.579562,3.7778741 3.5718,3.8022151 3.552045,3.8657156 3.4825476,4.0865544 3.3587226,4.206146 2.9022282,4.206146"
     style="fill:#ffffff;fill-opacity:1;fill-rule:nonzero;stroke:none;stroke-width:0.352778"
     id="path445" />
</svg>
