<?xml version="1.0" encoding="UTF-8" standalone="no"?>
<!-- Created with Inkscape (http://www.inkscape.org/) -->

<svg
        width="5.0000124mm"
        height="4.2061501mm"
        viewBox="0 0 5.0000124 4.2061501"
        version="1.1"
        id="svg3589"
        xmlns="http://www.w3.org/2000/svg"
>
  <defs
     id="defs3586" />
  <g
     id="layer1"
     transform="translate(39.981978,-122.47986)">
    <g
       id="g443"
       transform="matrix(0,0.35277777,0.35277777,0,-39.463822,122.75077)">
      <path
         d="M 0,0 C 0,-0.299 0.191,-0.516 0.294,-0.559 0.666,-0.716 1.435,-0.758 1.52,-0.626 1.604,-0.072 1.094,0.879 0.827,0.95 0.513,1.033 0.197,0.666 0.049,0.261 H 0.048 C 0.015,0.169 0,0.082 0,0 M 2.294,-0.516 2.279,-0.728 C 2.242,-0.977 2.097,-1.184 1.87,-1.311 1.3,-1.631 0.282,-1.385 -0.004,-1.264 -0.484,-1.061 -0.984,-0.327 -0.67,0.525 -0.352,1.39 0.345,1.868 1.022,1.689 1.698,1.511 2.294,0.308 2.294,-0.516 M 6.181,4.156 C 6.181,4.054 6.226,4.011 6.244,3.993 6.375,3.868 6.689,3.851 6.96,3.953 7.094,4.004 7.407,4.159 7.437,4.503 7.452,4.681 7.458,5.101 7.198,5.153 6.895,5.215 6.387,4.858 6.212,4.324 L 6.181,4.156 M 7.953,4.648 7.944,4.459 C 7.907,4.021 7.606,3.653 7.141,3.477 6.672,3.299 6.17,3.358 5.892,3.624 5.765,3.745 5.575,4.017 5.727,4.482 5.97,5.227 6.705,5.774 7.3,5.653 7.46,5.621 7.953,5.454 7.953,4.648 M 2.259,7.759 C 2.259,7.722 2.342,7.529 2.603,7.274 2.95,6.934 3.377,6.709 3.64,6.727 3.818,6.739 3.901,6.896 3.939,7.025 4.031,7.34 3.938,7.735 3.735,7.886 3.531,8.038 3.085,8.072 2.674,7.966 2.401,7.896 2.274,7.794 2.259,7.759 M 4.484,7.286 C 4.484,7.143 4.465,7.004 4.429,6.881 4.313,6.49 4.031,6.242 3.674,6.217 3.105,6.179 2.395,6.678 2.014,7.167 1.787,7.458 1.706,7.711 1.774,7.919 1.864,8.195 2.181,8.348 2.431,8.427 2.915,8.581 3.625,8.605 4.04,8.295 4.351,8.064 4.484,7.661 4.484,7.286 M 5.726,7.917 C 5.726,7.698 5.843,7.491 6.039,7.363 6.209,7.252 6.404,7.224 6.551,7.289 6.937,7.46 7.449,8.173 7.478,8.582 7.497,8.853 7.424,9.177 6.683,9.296 6.533,9.321 6.393,9.275 6.254,9.157 5.928,8.878 5.726,8.297 5.726,7.917 M 7.99,8.639 7.986,8.545 C 7.944,7.942 7.323,7.073 6.757,6.822 6.45,6.687 6.078,6.729 5.761,6.936 5.42,7.158 5.216,7.525 5.216,7.917 5.216,8.414 5.464,9.153 5.923,9.545 6.176,9.76 6.466,9.848 6.764,9.8 7.807,9.633 7.99,9.037 7.99,8.639 M 0.306,5.042 C 0.306,4.398 0.626,3.499 0.827,3.419 1.36,3.376 1.908,3.197 2.444,2.891 2.706,2.742 2.925,2.412 3.178,2.03 3.317,1.82 3.551,1.468 3.655,1.403 4.212,1.106 5.018,0.826 5.45,1.02 c 0.248,0.111 0.373,0.332 0.518,0.588 0.169,0.298 0.359,0.635 0.767,0.771 0.218,0.073 0.443,0.104 0.661,0.135 0.361,0.049 0.672,0.093 0.899,0.297 0.391,0.351 1.968,2.157 1.968,3.947 0,0.884 -0.136,0.926 -0.339,0.99 C 9.685,7.823 9.324,7.936 9.07,8.416 8.847,8.838 8.773,9.149 8.715,9.399 8.647,9.684 8.604,9.872 8.348,10.183 8.154,10.419 8,10.494 7.821,10.581 7.552,10.712 7.216,10.875 6.943,11.476 6.924,11.512 6.766,11.638 6.32,11.726 5.261,11.934 3.829,11.727 3.603,11.541 3.445,11.41 3.442,11.334 3.436,11.109 3.428,10.868 3.417,10.537 3.137,10.204 2.928,9.956 2.529,9.771 2.024,9.538 1.438,9.266 0.552,8.856 0.471,8.46 0.39,8.063 0.519,7.785 0.654,7.492 0.792,7.199 0.946,6.867 0.838,6.467 0.767,6.208 0.653,5.987 0.553,5.792 0.415,5.524 0.306,5.312 0.306,5.042 M 11.155,6.758 C 11.155,4.656 9.479,2.675 8.893,2.147 8.463,1.76 7.939,1.687 7.519,1.629 7.333,1.604 7.157,1.579 7.018,1.533 6.935,1.505 6.843,1.342 6.745,1.169 6.57,0.86 6.331,0.437 5.815,0.205 4.958,-0.179 3.829,0.298 3.232,0.617 2.941,0.772 2.695,1.144 2.435,1.537 2.306,1.731 2.09,2.055 1.998,2.118 1.579,2.357 1.156,2.497 0.743,2.531 c -1.014,0.085 -1.33,1.87 -1.33,2.511 0,0.486 0.184,0.843 0.346,1.158 0.088,0.171 0.171,0.333 0.218,0.502 C 0,6.785 -0.072,6.938 -0.154,7.115 -0.319,7.469 -0.545,7.953 -0.403,8.64 c 0.172,0.838 1.215,1.32 2.052,1.708 0.304,0.14 0.72,0.333 0.805,0.431 0.074,0.088 0.083,0.16 0.089,0.359 0.009,0.28 0.022,0.704 0.491,1.091 0.588,0.485 2.495,0.597 3.587,0.345 0.596,-0.137 0.978,-0.383 1.135,-0.729 0.14,-0.307 0.239,-0.356 0.456,-0.461 C 8.427,11.279 8.72,11.137 9.038,10.75 9.425,10.278 9.506,9.935 9.584,9.604 9.638,9.373 9.689,9.154 9.859,8.833 9.941,8.678 10.01,8.656 10.19,8.6 10.816,8.403 11.155,8.052 11.155,6.758"
         style="fill:#ffffff;fill-opacity:1;fill-rule:nonzero;stroke:none"
         id="path445" />
    </g>
  </g>
</svg>
