<?xml version="1.0" encoding="UTF-8" standalone="no"?>
<svg
   width="416.108"
   height="416.108"
   viewBox="0 0 416.108 416.108"
   version="1.1"
   id="svg869"
   xmlns="http://www.w3.org/2000/svg"
   xmlns:svg="http://www.w3.org/2000/svg">
  <defs
     id="defs873" />
  <path
     d="m 194.892,2.1198374 c -7.149,3.014 -10.974,5.756 -14.844,10.6419996 -9.512,12.011 -11.016,27.837 -3.91,41.168 3.736,7.011 6.364,9.55 15.7,15.174 l 7.339,4.42 -0.055,18.256 c -0.036,12.272003 -0.433,18.713003 -1.211,19.650003 -0.961,1.158 -9.876,1.393 -52.823,1.393 -43.392,0 -52.623,0.248 -57.628,1.547 -13.988,3.631 -23.393,10.106 -30.482,20.986 -6.073,9.322 -7.978,17.091 -7.978,32.54 0,16.198 0.243,15.927 -14.291,15.927 -8.29,0 -11.848,0.454 -16.142,2.061 -7.418,2.775 -13.703,9.013 -16.432,16.308 -1.993,5.326 -2.135,7.567 -2.135,33.631 0,25.982 0.147,28.318 2.115,33.577 2.476,6.618 7.415,11.902 14.415,15.423 4.265,2.145 6.601,2.547 16.47,2.835 8.36,0.243 11.95,0.738 13.149,1.813 1.363,1.223 1.725,4.275 2.093,17.665 0.362,13.141 0.838,17.26 2.531,21.887 4.74,12.958 15.248,23.836 28.002,28.988 l 5.725,2.312 121.5,0.268 c 119.732,0.265 121.598,0.239 128.21,-1.766 10.299,-3.124 18.307,-9.108 24.511,-18.316 7.275,-10.799 8.43,-15.142 9.022,-33.912 0.312,-9.918 0.912,-16.065 1.626,-16.644 0.622,-0.504 6.081,-1.092 12.131,-1.306 9.187,-0.324 11.914,-0.812 16.546,-2.957 7.836,-3.631 12.239,-7.883 15.359,-14.836 l 2.703,-6.022 -0.304,-30.255 -0.304,-30.254 -2.657,-5 c -3.156,-5.94 -6.73,-9.447 -12.843,-12.603 -3.812,-1.969 -6.368,-2.383 -16.712,-2.712 -8.817,-0.281 -12.532,-0.775 -13.365,-1.777 -0.704,-0.849 -1.268,-6.543 -1.451,-14.648 -0.355,-15.722 -2.358,-23.367 -8.553,-32.643 -5.08,-7.609 -10.702,-12.554 -18.419,-16.203 -12.349,-5.839 -13.23,-5.914 -69.51,-5.914 -38.792,0 -51.888,-0.298 -52.79,-1.2 -0.847,-0.847 -1.2,-6.674 -1.2,-19.831003 v -18.632 l 7.071,-3.876 c 11.24,-6.161 17.489,-14.655 19.937,-27.098 2.943,-14.955 -5.311,-31.388 -19.388,-38.6019996 -5.344,-2.73799996 -7.325,-3.17999996 -15.62,-3.48199996 -8.221,-0.299 -10.255,-0.028 -15.108,2.01799996 m 3.474,17.6219996 c -8.433,5.141 -11.635,15.762 -7.395,24.522 3.225,6.661 7.861,9.847 15.09,10.37 7.609,0.55 10.114,-0.148 14.57,-4.06 4.435,-3.894 6.369,-8.192 6.369,-14.154 0,-7.588 -3.673,-13.776 -10.2,-17.186 -4.047,-2.114 -14.612,-1.823 -18.434,0.508 M 85.142,133.35884 c -5.477,2.378 -12.518,8.932 -15.167,14.119 l -2.475,4.845 -0.267,83.838 -0.267,83.837 2.682,5.976 c 2.897,6.456 7.947,11.506 14.842,14.844 4.074,1.972 6.091,2.005 123.629,2.005 h 119.488 l 5.132,-2.557 c 6.047,-3.014 11.645,-8.878 14.624,-15.321 2.129,-4.605 2.137,-4.931 2.137,-88.622 v -84 l -2.155,-4.025 c -2.671,-4.986 -11.225,-13.109 -15.834,-15.035 -5.205,-2.175 -241.35,-2.083 -246.369,0.096 m 60.213,41.503 c -9.747,1.93 -20.963,10.15 -25.685,18.825 -10.538,19.363 -2.962,43.467 16.708,53.15 11.484,5.654 21.809,5.63 33.402,-0.077 8.759,-4.312 13.562,-9.231 17.648,-18.075 4.431,-9.59 5.252,-15.66 3.201,-23.664 -4.074,-15.904 -13.546,-25.858 -28.249,-29.687 -6.275,-1.635 -10.55,-1.753 -17.025,-0.472 m 106.43,0.551 c -7.659,2.356 -16.813,9.24 -20.567,15.466 -8.183,13.572 -8.822,24.171 -2.273,37.702 4.445,9.182 9.543,14.185 18.95,18.596 5.762,2.701 7.69,3.096 15.105,3.096 7.429,0 9.339,-0.393 15.16,-3.121 12.215,-5.726 20.12,-15.725 22.858,-28.916 1.546,-7.445 -0.676,-18.57 -5.233,-26.202 -8.565,-14.347 -27.787,-21.609 -44,-16.621 m -107.765,18.66 c -6.296,3.217 -10.195,8.514 -10.785,14.654 -0.742,7.727 0.45,11.799 4.852,16.575 5.231,5.675 8.325,6.836 16.917,6.351 6.959,-0.393 7.1,-0.458 12.218,-5.576 5.015,-5.015 5.191,-5.384 5.593,-11.69 0.53,-8.315 -0.105,-10.686 -4.071,-15.203 -6.392,-7.28 -16.42,-9.354 -24.724,-5.111 m 110.48,-0.354 c -7.927,3.67 -11.5,9.485 -11.5,18.719 0,6.494 1.407,9.502 6.965,14.885 4.057,3.929 4.277,4.005 12.333,4.3 9.574,0.349 12.697,-1.05 17.672,-7.917 2.712,-3.744 3.03,-4.946 3.03,-11.455 0,-6.661 -0.275,-7.636 -3.264,-11.6 -6.126,-8.121 -16.508,-10.973 -25.236,-6.932 m -233.577,12.027 -2.923,2.923 v 27.473 27.474 l 3.535,3.103 c 3.44,3.021 3.798,3.104 13.345,3.104 8.234,0 10.076,-0.294 11.465,-1.829 1.464,-1.618 1.655,-5.361 1.655,-32.465 0,-29.265 -0.087,-30.682 -1.934,-31.671 -1.064,-0.569 -6.499,-1.035 -12.077,-1.035 -9.877,0 -10.219,0.077 -13.066,2.923 m 348.277,-1.723 c -1.716,1.716 -1.716,62.884 0,64.6 0.779,0.779 4.844,1.2 11.6,1.2 h 10.4 l 3.4,-3.4 3.4,-3.4 v -27.156 -27.157 l -3.223,-2.943 c -3.142,-2.87 -3.489,-2.944 -13.8,-2.944 -6.893,0 -10.995,0.418 -11.777,1.2 m -198.415,76.55 c -3.685,4.231 -2.464,7.656 5.182,14.53 5.621,5.055 16.976,10.273 26.006,11.952 13.266,2.467 37.124,-7.783 42.553,-18.283 1.974,-3.816 1.858,-5.565 -0.526,-7.949 -3.319,-3.319 -6.462,-2.511 -12.767,3.286 -8.219,7.556 -14.848,10.035 -25.453,9.518 -10.101,-0.492 -15.906,-3.025 -22.85,-9.97 -5.277,-5.276 -9.336,-6.307 -12.145,-3.084"
     stroke="none"
     fill-rule="evenodd"
     id="path865" />
  <path
     d=""
     stroke="none"
     fill="#fcfcfc"
     fill-rule="evenodd"
     id="path867" />
</svg>
