<?xml version="1.0" encoding="UTF-8" standalone="no"?>
<!-- Created with Inkscape (http://www.inkscape.org/) -->

<svg
        width="4.9999633mm"
        height="5.0009775mm"
        viewBox="0 0 4.9999633 5.0009775"
        version="1.1"
        id="svg3549"
        xmlns="http://www.w3.org/2000/svg"
>
  <defs
     id="defs3546" />
  <g
     id="layer1"
     transform="translate(-16.41949,-110.65937)">
    <g
       id="g435"
       transform="matrix(0,0.35277777,0.35277777,0,17.801717,113.7751)">
      <path
         d="m 0,0 c 0,-0.365 0.14,-0.729 0.417,-1.007 0.555,-0.555 1.459,-0.555 2.014,0 0.555,0.555 0.555,1.459 0,2.014 -0.555,0.555 -1.459,0.555 -2.014,0 C 0.14,0.729 0,0.364 0,0 m 3.457,0 c 0,-0.521 -0.198,-1.042 -0.595,-1.438 -0.793,-0.794 -2.084,-0.794 -2.877,0 -0.793,0.792 -0.793,2.083 0,2.876 0.793,0.793 2.084,0.793 2.877,0 C 3.259,1.042 3.457,0.521 3.457,0 m -7.066,1.379 2.428,-3.094 C -1.086,-1.849 -1,-1.934 -0.882,-2.052 l 0.051,-0.051 c 1.201,-1.201 3.155,-1.201 4.357,0 1.202,1.202 1.202,3.157 0,4.358 C 3.389,2.392 3.267,2.515 3.14,2.606 L 3.139,2.604 0.045,5.033 C -0.043,4.895 -0.163,4.764 -0.328,4.669 -0.687,4.464 -1.126,4.493 -1.632,4.755 L -1.66,4.771 -6.043,7.466 -3.332,3.055 C -3.069,2.55 -3.04,2.111 -3.245,1.752 -3.34,1.586 -3.471,1.466 -3.609,1.379 M 5.344,0.076 c 0,-1.067 -0.416,-2.071 -1.171,-2.826 -1.558,-1.558 -4.093,-1.557 -5.652,0 l -0.048,0.049 c -0.134,0.134 -0.261,0.26 -0.388,0.441 l -3.358,4.277 0.88,0.046 c 0.117,0.008 0.311,0.067 0.354,0.144 0.027,0.049 0.018,0.187 -0.098,0.413 l -4.695,7.635 7.637,-4.695 c 0.226,-0.116 0.364,-0.124 0.413,-0.097 0.079,0.046 0.137,0.255 0.143,0.354 l 0.046,0.88 4.25,-3.336 C 3.852,3.224 4.011,3.064 4.165,2.91 4.928,2.147 5.344,1.144 5.344,0.076"
         style="fill:#ffffff;fill-opacity:1;fill-rule:nonzero;stroke:none"
         id="path437" />
    </g>
  </g>
</svg>
