<?xml version="1.0" encoding="UTF-8" standalone="no"?>
<!-- Created with Inkscape (http://www.inkscape.org/) -->

<svg
   width="4.9999633mm"
   height="5.0009775mm"
   viewBox="0 0 4.9999633 5.0009775"
   version="1.1"
   id="svg3549"
   xmlns="http://www.w3.org/2000/svg"
   xmlns:svg="http://www.w3.org/2000/svg">
  <defs
     id="defs3546" />
  <path
     d="m 1.382227,3.11573 c -0.1287639,0 -0.257175,0.049389 -0.3552472,0.1471083 -0.19579168,0.1957917 -0.19579168,0.5147028 0,0.7104945 0.1957916,0.1957916 0.5147028,0.1957916 0.7104944,0 0.1957917,-0.1957917 0.1957917,-0.5147028 0,-0.7104945 C 1.639402,3.1651189 1.5106381,3.11573 1.382227,3.11573 m 0,1.2195528 c -0.1837972,0 -0.3675944,-0.06985 -0.50729443,-0.2099028 -0.28010555,-0.2797528 -0.28010555,-0.7351889 0,-1.0149417 0.27940003,-0.2797527 0.73483613,-0.2797527 1.01458883,0 0.2797528,0.2797528 0.2797528,0.7351889 0,1.0149417 -0.1397,0.1400528 -0.3234972,0.2099028 -0.5072944,0.2099028 M 1.8687075,1.842555 0.77721312,2.6990995 C 0.7299409,2.7326133 0.69995479,2.7629522 0.65832702,2.80458 l -0.0179917,0.017992 c -0.4236861,0.4236861 -0.4236861,1.1130138 0,1.5370527 0.42403888,0.4240389 1.11371948,0.4240389 1.53740558,0 0.048331,-0.048331 0.091722,-0.091369 0.123825,-0.1361722 L 2.3008603,4.2230994 3.1577575,3.131605 C 3.1090742,3.1005606 3.0628603,3.0582272 3.0293464,3.0000189 2.957027,2.8733717 2.9672575,2.7185022 3.0596853,2.5399967 l 0.00564,-0.00988 L 4.0160658,0.98389394 2.4599631,1.9402745 C 2.2818103,2.033055 2.1269409,2.0432856 2.0002937,1.9709661 1.9417325,1.9374522 1.8993992,1.8912384 1.8687075,1.842555 M 1.4090381,5.0009744 c -0.3764139,0 -0.73060275,-0.1467555 -0.99694997,-0.4131028 -0.54962776,-0.5496277 -0.54927499,-1.4439194 0,-1.9938999 l 0.0172861,-0.016933 c 0.0472722,-0.047272 0.0917222,-0.092075 0.155575,-0.1368777 L 2.0937798,1.2555328 2.1100075,1.5659773 c 0.00282,0.041275 0.023636,0.1097138 0.0508,0.1248833 0.017286,0.00953 0.065969,0.00635 0.1456973,-0.034572 L 4.999963,-3.26464e-6 3.3436714,2.6941606 c -0.040922,0.079728 -0.043744,0.1284111 -0.034219,0.1456972 0.016228,0.027869 0.089958,0.048331 0.1248833,0.050447 l 0.310444,0.016228 -1.1768666,1.4993055 C 2.5195825,4.47463 2.4631381,4.5307216 2.4088103,4.5850494 2.1396409,4.8542189 1.7858048,5.0009744 1.4090381,5.0009744"
     style="fill:#ffffff;fill-opacity:1;fill-rule:nonzero;stroke:none;stroke-width:0.352778"
     id="path437" />
</svg>
