<?xml version="1.0" encoding="UTF-8" standalone="no"?>
<!-- Created with Inkscape (http://www.inkscape.org/) -->

<svg
   width="4.9999194mm"
   height="5.0002723mm"
   viewBox="0 0 4.9999194 5.0002723"
   version="1.1"
   id="svg3629"
   xmlns="http://www.w3.org/2000/svg"
   xmlns:svg="http://www.w3.org/2000/svg">
  <defs
     id="defs3626" />
  <path
     d="m 4.131028,2.79823 c -0.508,0.1397 -1.0569222,0.2113139 -1.6308916,0.2113139 -0.1661584,0 -0.333375,-0.00635 -0.4967111,-0.01905 l 0.010936,-0.1481667 c 0.1598083,0.011994 0.3231444,0.018344 0.485775,0.018344 0.5605638,0 1.0960805,-0.069497 1.5913805,-0.2056695 z M 2.5001364,4.6531355 c -0.8551333,0 -1.59561388,-0.50165 -1.94239443,-1.2262555 C 1.0526892,3.5993883 1.6245419,3.7034578 2.2115642,3.7288578 l 0.00635,-0.1488723 C 1.6425336,3.5552911 1.0830281,3.4526328 0.6000753,3.2843578 0.55844752,3.2698939 0.51823086,3.2540189 0.47801419,3.2384967 0.40710586,3.0448217 0.36336142,2.8387994 0.35136697,2.6239578 c 0.0652639,0.026458 0.13158611,0.051506 0.19967222,0.075847 0.36688888,0.1277056 0.76835001,0.2173111 1.19380001,0.2667 L 1.7621253,2.8186911 C 1.3472586,2.7707133 0.95638085,2.6835772 0.6000753,2.5586939 0.51329197,2.528355 0.43003641,2.4958995 0.34819197,2.4613272 c 0.003528,-0.1774472 0.0275167,-0.34925 0.0712611,-0.5136444 0.0433917,0.017286 0.0871361,0.033161 0.13158611,0.048683 C 1.1317114,2.1992133 1.8058697,2.306105 2.5001364,2.306105 V 2.1572328 c -0.6776861,0 -1.3349111,-0.1037167 -1.9000611,-0.3012722 -0.0465667,-0.016581 -0.092075,-0.033161 -0.13687777,-0.050447 0.0328083,-0.096661 0.0723194,-0.1894417 0.11782777,-0.2786945 0.5739694,0.1957917 1.2364861,0.2995083 1.9191111,0.2995083 0.6850944,0 1.3444361,-0.1044222 1.9184055,-0.3002138 0.045861,0.0889 0.085372,0.1827388 0.1181805,0.2790472 l -0.037747,0.014817 c -0.248003,0.093486 -0.5175252,0.16898 -0.8015113,0.2240133 l 0.028928,0.1464028 c 0.291747,-0.05715 0.5693831,-0.1344083 0.825147,-0.2307167 l 0.028928,-0.011994 c 0.046919,0.1763889 0.072319,0.3612444 0.072319,0.5520972 0,0.2599972 -0.046214,0.5090583 -0.1308805,0.7394222 l -0.022931,0.00953 -0.047978,0.016581 c -0.048683,0.017992 -0.097719,0.03563 -0.1481666,0.051858 L 4.215341,3.3432776 C 4.17583,3.3552716 4.137024,3.3672666 4.0968077,3.3789086 l -0.093839,0.023989 C 3.9631058,3.4131217 3.9232419,3.4229994 3.8826724,3.4325244 3.851628,3.43958 3.819878,3.4462828 3.788128,3.4533383 3.4346447,3.52848 3.0596419,3.5736355 2.6751141,3.5838661 l 0.00388,0.1485194 C 3.038828,3.7225078 3.391253,3.6837022 3.7263919,3.6177328 v 0.00106 c 0.03175,-0.00635 0.063147,-0.013758 0.094544,-0.020108 0.032103,-0.00741 0.064558,-0.013758 0.096308,-0.021167 0.042333,-0.00953 0.083608,-0.020461 0.1252361,-0.031397 0.03175,-0.00811 0.0635,-0.015522 0.094897,-0.023989 0.041628,-0.011642 0.08255,-0.024695 0.1234722,-0.037395 L 4.3493974,3.45863 c 0.03175,-0.010583 0.062442,-0.021872 0.093839,-0.032808 -0.3467806,0.724958 -1.0872612,1.2273135 -1.9431,1.2273135 m 0,-4.30565267 c 0.7824611,0 1.4689666,0.41980555 1.8453805,1.04633887 C 3.7927141,1.5793828 3.1591252,1.677455 2.5001364,1.677455 1.8436169,1.677455 1.2072058,1.5793828 0.65440308,1.3938217 0.70343919,1.3119773 0.75811974,1.2340134 0.81738641,1.1595773 1.0724447,1.232955 1.3416142,1.2890467 1.6224253,1.3267939 L 1.6421808,1.1796856 C 1.3931197,1.1458189 1.1539364,1.0967828 0.92568918,1.0343412 1.3186836,0.61206616 1.8788947,0.34748283 2.5001364,0.34748283 m 0,-0.34748610164 C 1.1214808,-3.27164e-6 3.133e-7,1.12183 3.133e-7,2.49978 c 0,1.3790083 1.1214804867,2.5004888 2.5001360867,2.5004888 1.3786555,0 2.4997832,-1.1214805 2.4997832,-2.5004888 0,-1.37795 -1.1211277,-2.49978327164 -2.4997832,-2.49978327164"
     style="fill:#ffffff;fill-opacity:1;fill-rule:nonzero;stroke:none;stroke-width:0.352778"
     id="path453" />
</svg>
