<?xml version="1.0" encoding="UTF-8" standalone="no"?>
<!-- Created with Inkscape (http://www.inkscape.org/) -->

<svg
        width="4.9999194mm"
        height="5.0002723mm"
        viewBox="0 0 4.9999194 5.0002723"
        version="1.1"
        id="svg3629"
        xmlns="http://www.w3.org/2000/svg"
>
  <defs
     id="defs3626" />
  <g
     id="layer1"
     transform="translate(-87.456771,-103.16333)">
    <g
       id="g451"
       transform="matrix(0,0.35277777,0.35277777,0,91.587799,105.96156)">
      <path
         d="m 0,0 c 0.396,-1.44 0.599,-2.996 0.599,-4.623 0,-0.471 -0.018,-0.945 -0.054,-1.408 L 0.125,-6 c 0.034,0.453 0.052,0.916 0.052,1.377 0,1.589 -0.197,3.107 -0.583,4.511 z m 5.258,-4.623 c 0,-2.424 -1.422,-4.523 -3.476,-5.506 0.489,1.403 0.784,3.024 0.856,4.688 l -0.422,0.018 c -0.07,-1.631 -0.361,-3.217 -0.838,-4.586 -0.041,-0.118 -0.086,-0.232 -0.13,-0.346 -0.549,-0.201 -1.133,-0.325 -1.742,-0.359 0.075,0.185 0.146,0.373 0.215,0.566 0.362,1.04 0.616,2.178 0.756,3.384 l -0.419,0.049 c -0.136,-1.176 -0.383,-2.284 -0.737,-3.294 -0.086,-0.246 -0.178,-0.482 -0.276,-0.714 -0.503,0.01 -0.99,0.078 -1.456,0.202 0.049,0.123 0.094,0.247 0.138,0.373 0.575,1.646 0.878,3.557 0.878,5.525 h -0.422 c 0,-1.921 -0.294,-3.784 -0.854,-5.386 -0.047,-0.132 -0.094,-0.261 -0.143,-0.388 -0.274,0.093 -0.537,0.205 -0.79,0.334 0.555,1.627 0.849,3.505 0.849,5.44 0,1.942 -0.296,3.811 -0.851,5.438 0.252,0.13 0.518,0.242 0.791,0.335 l 0.042,-0.107 c 0.265,-0.703 0.479,-1.467 0.635,-2.272 l 0.415,0.082 c -0.162,0.827 -0.381,1.614 -0.654,2.339 l -0.034,0.082 c 0.5,0.133 1.024,0.205 1.565,0.205 0.737,0 1.443,-0.131 2.096,-0.371 L 1.277,1.043 1.324,0.907 C 1.375,0.769 1.425,0.63 1.471,0.487 L 1.545,0.239 C 1.579,0.127 1.613,0.017 1.646,-0.097 l 0.068,-0.266 c 0.029,-0.113 0.057,-0.226 0.084,-0.341 0.02,-0.088 0.039,-0.178 0.059,-0.268 0.213,-1.002 0.341,-2.065 0.37,-3.155 l 0.421,0.011 C 2.62,-3.096 2.51,-2.097 2.323,-1.147 h 0.003 c -0.018,0.09 -0.039,0.179 -0.057,0.268 -0.021,0.091 -0.039,0.183 -0.06,0.273 -0.027,0.12 -0.058,0.237 -0.089,0.355 -0.023,0.09 -0.044,0.18 -0.068,0.269 -0.033,0.118 -0.07,0.234 -0.106,0.35 L 1.872,0.619 C 1.842,0.709 1.81,0.796 1.779,0.885 3.834,-0.098 5.258,-2.197 5.258,-4.623 m -12.205,0 c 0,2.218 1.19,4.164 2.966,5.231 0.526,-1.567 0.804,-3.363 0.804,-5.231 0,-1.861 -0.278,-3.665 -0.804,-5.232 -0.232,0.139 -0.453,0.294 -0.664,0.462 0.208,0.723 0.367,1.486 0.474,2.282 l -0.417,0.056 C -4.684,-7.761 -4.823,-8.439 -5,-9.086 c -1.197,1.114 -1.947,2.702 -1.947,4.463 m -0.985,0 c 0,-3.908 3.18,-7.087 7.086,-7.087 3.909,0 7.088,3.179 7.088,7.087 0,3.908 -3.179,7.086 -7.088,7.086 -3.906,0 -7.086,-3.178 -7.086,-7.086"
         style="fill:#ffffff;fill-opacity:1;fill-rule:nonzero;stroke:none"
         id="path453" />
    </g>
  </g>
</svg>
