<?xml version="1.0" encoding="UTF-8" standalone="no"?>
<!-- Created with Inkscape (http://www.inkscape.org/) -->

<svg
   width="4.3556194mm"
   height="5.7216201mm"
   viewBox="0 0 4.3556194 5.7216201"
   version="1.1"
   id="svg8303"
   xmlns="http://www.w3.org/2000/svg"
   xmlns:svg="http://www.w3.org/2000/svg">
  <defs
     id="defs8300" />
  <g
     id="layer1"
     transform="translate(-1.5398588,-111.56061)">
    <path
       style="display:inline;fill-opacity:1;fill-rule:nonzero;stroke:none;stroke-width:0.352778"
       d="m 4.9956198,113.49124 -1.2677951,0.34038 -0.9852977,-0.35967 -1.1878698,3.26457 0.927421,-0.2191 0.5718845,0.76481 0.7524115,-2.06706 0.5470807,2.04639 0.6352752,-0.71383 0.9067482,0.30042"
       id="path2180" />
    <path
       style="display:inline;fill-opacity:1;fill-rule:nonzero;stroke:none;stroke-width:0.352778"
       d="m 3.09806,115.82426 -0.071656,-0.0358 -0.3720711,-0.52227 -0.5856676,-0.21084 c -0.035828,-0.0124 -0.057877,-0.0441 -0.059253,-0.0813 l -0.00967,-0.65456 -0.3569123,-0.5333 v -0.0979 l 0.3569123,-0.53467 0.00967,-0.65457 c 0.00141,-0.0358 0.023424,-0.0689 0.059253,-0.0813 l 0.5856676,-0.21084 0.3720711,-0.5209 0.071656,-0.0372 0.027552,0.004 0.5897986,0.19155 0.5911779,-0.19155 0.027552,-0.004 0.071656,0.0372 0.3720712,0.5209 0.5856675,0.21084 c 0.034431,0.0124 0.057877,0.0455 0.057877,0.0813 l 0.00963,0.65457 0.3582916,0.53467 v 0.0979 l -0.3582916,0.5333 -0.00963,0.65456 c 0,0.0372 -0.023424,0.0689 -0.057877,0.0813 l -0.5856675,0.21084 -0.3720712,0.52227 -0.071656,0.0358 -0.027552,-0.004 -0.5911779,-0.19016 -0.5897986,0.19016 -0.027552,0.004"
       id="path2182" />
    <path
       style="display:inline;fill:#ffffff;fill-opacity:1;fill-rule:nonzero;stroke:none;stroke-width:0.352778"
       d="m 3.09806,111.56061 c -0.055122,0 -0.1102431,0.0262 -0.143316,0.073 l -0.355533,0.50023 -0.5608602,0.20119 c -0.068904,0.0248 -0.115757,0.0896 -0.115757,0.16261 l -0.00963,0.62838 -0.3431328,0.51263 c -0.039963,0.0593 -0.039963,0.13643 0,0.19569 l 0.3431328,0.51263 0.00963,0.62838 c 0,0.073 0.046852,0.13781 0.115757,0.16261 l 0.5608602,0.20257 0.355533,0.49885 c 0.033055,0.0468 0.088194,0.073 0.143316,0.073 l 0.055122,-0.008 0.5636189,-0.1819 0.563619,0.1819 0.053742,0.008 c 0.056501,0 0.1102431,-0.0262 0.143316,-0.073 l 0.3569123,-0.49885 0.5594844,-0.20257 c 0.068901,-0.0248 0.1157534,-0.0896 0.1157534,-0.16261 l 0.00963,-0.62838 0.3431328,-0.51263 c 0.039963,-0.0593 0.039963,-0.13643 0,-0.19569 l -0.3431328,-0.514 -0.00963,-0.62701 c 0,-0.073 -0.046852,-0.1378 -0.1157534,-0.16261 l -0.5594844,-0.20119 -0.3569123,-0.50023 c -0.033055,-0.0469 -0.086815,-0.073 -0.143316,-0.073 l -0.053742,0.008 -0.563619,0.1819 -0.5636189,-0.1819 -0.055122,-0.008 m 1.2361015,0.17639 0.3886059,0.54295 0.6104713,0.22049 0.011007,0.67937 0.3720712,0.55672 -0.3720712,0.55673 -0.011007,0.67938 -0.6104713,0.22048 -0.3886059,0.54295 -0.6173611,-0.19982 -0.6187404,0.19982 -0.3886059,-0.54295 -0.6104714,-0.22048 -0.011007,-0.67938 -0.3706919,-0.55673 0.3706919,-0.55672 0.011007,-0.67937 0.6104714,-0.22049 0.3886059,-0.54295 0.6187404,0.19982 0.6173611,-0.19982"
       id="path2184" />
    <g
       style="display:inline;fill:#ffffff;fill-opacity:1"
       id="g2188"
       transform="matrix(0.35277777,0,0,0.35277777,-134.73745,-61.041423)">
      <g
         id="use2186"
         transform="translate(388.4342,498.578)">
        <path
           style="stroke:none"
           d="M 1.5,0 H 2.5625 V -4.9375 H 1.640625 L 0.078125,-3.375 0.6875,-2.75 1.5,-3.578125 Z m 0,0"
           id="path8357" />
      </g>
    </g>
    <g
       style="display:inline;fill:#ffffff;fill-opacity:1"
       id="g2194"
       transform="matrix(0.35277777,0,0,0.35277777,-134.73745,-61.041423)">
      <g
         id="use2190"
         transform="translate(391.48019,497.095)">
        <path
           style="stroke:none"
           d="m 0.125,-0.375 c 0.296875,0.28125 0.78125,0.453125 1.28125,0.453125 0.796875,0 1.234375,-0.390625 1.234375,-0.921875 0,-0.71875 -0.65625,-0.84375 -1.140625,-0.9375 -0.328125,-0.0625 -0.546875,-0.125 -0.546875,-0.3125 0,-0.15625 0.171875,-0.265625 0.4375,-0.265625 0.359375,0 0.6875,0.15625 0.859375,0.328125 L 2.546875,-2.546875 C 2.265625,-2.765625 1.875,-2.9375 1.390625,-2.9375 c -0.75,0 -1.171875,0.421875 -1.171875,0.90625 0,0.6875 0.640625,0.796875 1.125,0.890625 0.328125,0.0625 0.578125,0.140625 0.578125,0.34375 0,0.171875 -0.15625,0.28125 -0.484375,0.28125 -0.359375,0 -0.78125,-0.1875 -0.984375,-0.390625 z m 0,0"
           id="path8353" />
      </g>
      <g
         id="use2192"
         transform="translate(394.3082,497.095)">
        <path
           style="stroke:none"
           d="m 1.328125,0.078125 c 0.3125,0 0.515625,-0.09375 0.625,-0.1875 L 1.796875,-0.6875 c -0.03125,0.046875 -0.140625,0.09375 -0.25,0.09375 -0.171875,0 -0.265625,-0.140625 -0.265625,-0.3125 v -1.296875 h 0.578125 v -0.65625 H 1.28125 v -0.78125 H 0.515625 v 0.78125 h -0.46875 v 0.65625 h 0.46875 v 1.5 c 0,0.5 0.296875,0.78125 0.8125,0.78125 z m 0,0"
           id="path8349" />
      </g>
    </g>
  </g>
</svg>
