<?xml version="1.0" encoding="UTF-8" standalone="no"?>
<!-- Created with Inkscape (http://www.inkscape.org/) -->

<svg
        width="4.9999194mm"
        height="3.6089165mm"
        viewBox="0 0 4.9999194 3.6089165"
        version="1.1"
        id="svg3669"
        xmlns="http://www.w3.org/2000/svg"
>
  <defs
     id="defs3666" />
  <g
     id="layer1"
     transform="translate(-37.123838,-147.05251)">
    <g
       id="g439"
       transform="matrix(0,0.35277777,0.35277777,0,39.247913,149.58616)">
      <path
         d="m 0,0 -0.469,-0.844 c 0.715,-0.397 1.158,-1.15 1.158,-1.966 0,-1.238 -1.007,-2.246 -2.246,-2.246 -1.156,0 -2.116,0.86 -2.232,2.001 l -0.039,0.389 -0.389,0.042 c -1.14,0.124 -2,1.077 -2,2.218 0,0.554 0.206,1.088 0.581,1.502 l 0.241,0.268 -0.187,0.307 c -0.217,0.355 -0.331,0.759 -0.331,1.169 0,0.619 0.247,1.195 0.695,1.622 l -0.666,0.7 C -6.525,4.55 -6.879,3.726 -6.879,2.84 c 0,-0.473 0.107,-0.939 0.308,-1.366 -0.396,-0.546 -0.611,-1.202 -0.611,-1.88 0,-1.51 1.048,-2.789 2.492,-3.116 0.32,-1.448 1.606,-2.499 3.133,-2.499 1.772,0 3.212,1.44 3.212,3.211 C 1.655,-1.644 1.021,-0.567 0,0 M 3.048,2.889 C 3.048,2.288 2.875,1.695 2.557,1.186 3.128,0.275 3.2,-0.911 2.744,-1.88 l -0.873,0.41 c 0.14,0.299 0.211,0.619 0.211,0.953 0,0.514 -0.17,0.998 -0.493,1.402 L 1.348,1.186 1.59,1.488 c 0.322,0.403 0.492,0.887 0.492,1.401 0,0.814 -0.434,1.539 -1.161,1.939 L 0.699,4.95 0.673,5.202 C 0.559,6.333 -0.4,7.187 -1.557,7.187 -2.542,7.187 -3.402,6.556 -3.698,5.618 -3.768,5.4 -3.803,5.172 -3.803,4.94 c 0,-0.747 0.37,-1.443 0.99,-1.862 l -0.54,-0.801 c -0.886,0.599 -1.415,1.595 -1.415,2.663 0,0.331 0.05,0.657 0.149,0.969 0.424,1.341 1.654,2.243 3.062,2.243 1.57,0 2.884,-1.104 3.156,-2.606 C 2.511,4.955 3.048,3.979 3.048,2.889"
         style="fill:#ffffff;fill-opacity:1;fill-rule:nonzero;stroke:none"
         id="path441" />
    </g>
  </g>
</svg>
