<?xml version="1.0" encoding="UTF-8" standalone="no"?>
<!-- Created with Inkscape (http://www.inkscape.org/) -->

<svg
   width="4.9999194mm"
   height="3.6089165mm"
   viewBox="0 0 4.9999194 3.6089165"
   version="1.1"
   id="svg3669"
   xmlns="http://www.w3.org/2000/svg"
   xmlns:svg="http://www.w3.org/2000/svg">
  <defs
     id="defs3666" />
  <path
     d="M 2.124075,2.53365 1.8263306,2.3681972 C 1.6862778,2.6204333 1.4206361,2.7767139 1.1327695,2.7767139 c -0.43673891,0 -0.79233891,-0.3552472 -0.79233891,-0.7923389 0,-0.4078111 0.30338889,-0.7464777 0.70590831,-0.7874 L 1.1835695,1.183217 1.1983865,1.0459864 c 0.043745,-0.40216661 0.3799417,-0.7055555 0.7824611,-0.7055555 0.1954389,0 0.3838222,0.0726722 0.5298722,0.20496389 l 0.094545,0.0850194 0.1083028,-0.0659694 C 2.8388028,0.48789171 2.981325,0.44767505 3.1259639,0.44767505 c 0.2183694,0 0.4215694,0.0871361 0.5722055,0.24518055 l 0.2469444,-0.23495 C 3.7292139,0.23177505 3.438525,0.10689172 3.1259639,0.10689172 2.9591,0.10689172 2.7947055,0.14463894 2.6440694,0.21554727 2.4514528,0.07584728 2.2200306,5.5860001e-8 1.9808472,5.5860001e-8 1.4481528,5.5860001e-8 0.99695002,0.36971116 0.88159169,0.87912226 0.37076948,0.99201115 4.683e-8,1.4456834 4.683e-8,1.984375 4.683e-8,2.6094972 0.50800004,3.1174972 1.1327695,3.1174972 1.5441083,3.1174972 1.92405,2.8938361 2.124075,2.53365 M 3.14325,3.6089166 c -0.2120195,0 -0.4212167,-0.061031 -0.6007806,-0.1732138 -0.3213805,0.2014361 -0.7397749,0.2268361 -1.0816166,0.065969 l 0.1446389,-0.307975 c 0.1054805,0.049389 0.2183694,0.074436 0.3361972,0.074436 0.1813278,0 0.3520722,-0.059972 0.4945944,-0.1739194 l 0.1061861,-0.08502 0.1065389,0.085372 C 2.7911778,3.2081598 2.9619222,3.268132 3.14325,3.268132 c 0.2871611,0 0.542925,-0.1531055 0.6840361,-0.409575 l 0.043039,-0.078317 0.0889,-0.00917 C 4.3582166,2.7308528 4.6594888,2.3925389 4.6594888,1.984375 4.6594888,1.6368889 4.4368861,1.3335 4.1059805,1.2290778 4.029075,1.2043834 3.9486416,1.1920361 3.8667972,1.1920361 c -0.263525,0 -0.5090583,0.1305278 -0.6568722,0.34925 L 2.92735,1.3507861 C 3.1386639,1.038225 3.4900305,0.85160559 3.8667972,0.85160559 c 0.1167694,0 0.231775,0.0176389 0.3418416,0.0525639 0.473075,0.14957781 0.7912806,0.58349441 0.7912806,1.08020551 0,0.5538611 -0.3894667,1.0174111 -0.9193389,1.1133667 C 3.8720889,3.419475 3.5277777,3.6089166 3.14325,3.6089166"
     style="fill:#ffffff;fill-opacity:1;fill-rule:nonzero;stroke:none;stroke-width:0.352778"
     id="path441" />
</svg>
