<?xml version="1.0" encoding="UTF-8" standalone="no"?>
<!-- Created with Inkscape (http://www.inkscape.org/) -->

<svg
   width="4.9999194mm"
   height="5.0002723mm"
   viewBox="0 0 4.9999194 5.0002723"
   version="1.1"
   id="svg3709"
   xmlns="http://www.w3.org/2000/svg"
   xmlns:svg="http://www.w3.org/2000/svg">
  <defs
     id="defs3706" />
  <path
     d="M 3.147836,3.60045 1.5924388,1.3521973 H 1.8707805 L 3.4261777,3.60045 Z m 0.5259917,0 -0.8688917,-1.2558889 0.00776,0.006 L 3.4896766,1.3522 h 0.2921 L 3.7747221,1.1454695 H 2.836686 l 0.00706,0.2067278 H 3.2321499 L 2.6832277,2.1688778 2.1184305,1.3521973 h 0.2942166 l -0.00741,-0.2067278 h -1.323975 l 0.00741,0.2067278 h 0.2564694 l 0.8509,1.2301361 L 1.5091833,3.60045 H 1.1669888 l 0.00706,0.2067278 h 0.98354 L 2.1505332,3.60045 H 1.7691805 L 2.3226888,2.765425 2.9005388,3.60045 H 2.6613555 l 0.00706,0.2067278 H 3.8678554 L 3.8604471,3.60045 Z M 2.500136,4.6898278 c -1.2075583,0 -2.1896916,-0.9821334 -2.1896916,-2.1900444 0,-1.2072056 0.9821333,-2.18933888 2.1896916,-2.18933888 1.2072055,0 2.1896916,0.98213328 2.1896916,2.18933888 0,1.207911 -0.9824861,2.1900444 -2.1896916,2.1900444 m 0,-4.689827720620002 C 1.1214805,7.938e-8 -4.1709999e-8,1.1218334 -4.1709999e-8,2.4997834 -4.1709999e-8,3.8787917 1.1214805,5.0002722 2.500136,5.0002722 c 1.3786555,0 2.4997833,-1.1214805 2.4997833,-2.5004888 C 4.9999193,1.1218334 3.8787915,7.938e-8 2.500136,7.938e-8"
     style="fill:#ffffff;fill-opacity:1;fill-rule:nonzero;stroke:none;stroke-width:0.352778"
     id="path449" />
</svg>
