<?xml version="1.0" encoding="UTF-8" standalone="no"?>
<!-- Created with Inkscape (http://www.inkscape.org/) -->

<svg
        width="4.9999194mm"
        height="5.0002723mm"
        viewBox="0 0 4.9999194 5.0002723"
        version="1.1"
        id="svg3709"
        xmlns="http://www.w3.org/2000/svg"
>
  <defs
     id="defs3706" />
  <g
     id="layer1"
     transform="translate(37.126162,-191.69217)">
    <g
       id="g447"
       transform="matrix(0,0.35277777,0.35277777,0,-33.978326,195.29262)">
      <path
         d="M 0,0 -6.373,-4.409 V -3.62 L 0,0.789 Z m 0,1.491 -3.56,-2.463 0.017,0.022 -2.83,1.919 v 0.828 l -0.586,-0.02 v -2.659 l 0.586,0.02 v 1.101 l 2.315,-1.556 -2.315,-1.601 v 0.834 l -0.586,-0.021 v -3.753 l 0.586,0.021 V -5.11 L -2.886,-2.698 0,-4.645 v -0.97 l 0.586,0.02 v 2.788 L 0,-2.827 V -3.908 L -2.367,-2.339 0,-0.701 v -0.678 l 0.586,0.02 v 3.4 L 0,2.02 Z m 3.088,-3.327 c 0,-3.423 -2.784,-6.207 -6.208,-6.207 -3.422,0 -6.206,2.784 -6.206,6.207 0,3.422 2.784,6.207 6.206,6.207 3.424,0 6.208,-2.785 6.208,-6.207 m -13.294,0 c 0,-3.908 3.18,-7.087 7.086,-7.087 3.909,0 7.088,3.179 7.088,7.087 0,3.908 -3.179,7.086 -7.088,7.086 -3.906,0 -7.086,-3.178 -7.086,-7.086"
         style="fill:#ffffff;fill-opacity:1;fill-rule:nonzero;stroke:none"
         id="path449" />
    </g>
  </g>
</svg>
