<?xml version="1.0" encoding="UTF-8" standalone="no"?>
<!-- Created with Inkscape (http://www.inkscape.org/) -->

<svg
   width="33.2104mm"
   height="6.7501583mm"
   viewBox="0 0 33.2104 6.7501583"
   version="1.1"
   id="svg7581"
   xmlns="http://www.w3.org/2000/svg"
   xmlns:svg="http://www.w3.org/2000/svg">
  <defs
     id="defs7578">
    <clipPath
       id="clip19">
      <path
         d="m 685,493 h 6 v 14 h -6 z m 0,0"
         id="path673" />
    </clipPath>
    <clipPath
       id="clip20">
      <path
         d="m 746.28906,567.83203 c 0,-45.90234 -37.21094,-83.11328 -83.11328,-83.11328 -45.90234,0 -83.11328,37.21094 -83.11328,83.11328 0,45.90234 37.21094,83.11328 83.11328,83.11328 45.90234,0 83.11328,-37.21094 83.11328,-83.11328 m -83.11328,64.82813 c -35.80469,0 -64.82812,-29.02344 -64.82812,-64.82813 0,-35.80469 29.02343,-64.82812 64.82812,-64.82812 35.80469,0 64.82813,29.02343 64.82813,64.82812 0,35.80469 -29.02344,64.82813 -64.82813,64.82813"
         id="path676" />
    </clipPath>
    <clipPath
       id="clip17">
      <path
         d="m 674,489 h 4 v 16 h -4 z m 0,0"
         id="path667" />
    </clipPath>
    <clipPath
       id="clip18">
      <path
         d="m 746.28906,567.83203 c 0,-45.90234 -37.21094,-83.11328 -83.11328,-83.11328 -45.90234,0 -83.11328,37.21094 -83.11328,83.11328 0,45.90234 37.21094,83.11328 83.11328,83.11328 45.90234,0 83.11328,-37.21094 83.11328,-83.11328 m -83.11328,64.82813 c -35.80469,0 -64.82812,-29.02344 -64.82812,-64.82813 0,-35.80469 29.02343,-64.82812 64.82812,-64.82812 35.80469,0 64.82813,29.02343 64.82813,64.82812 0,35.80469 -29.02344,64.82813 -64.82813,64.82813"
         id="path670" />
    </clipPath>
    <clipPath
       id="clip15">
      <path
         d="m 662,488 h 2 v 16 h -2 z m 0,0"
         id="path661" />
    </clipPath>
    <clipPath
       id="clip16">
      <path
         d="m 746.28906,567.83203 c 0,-45.90234 -37.21094,-83.11328 -83.11328,-83.11328 -45.90234,0 -83.11328,37.21094 -83.11328,83.11328 0,45.90234 37.21094,83.11328 83.11328,83.11328 45.90234,0 83.11328,-37.21094 83.11328,-83.11328 m -83.11328,64.82813 c -35.80469,0 -64.82812,-29.02344 -64.82812,-64.82813 0,-35.80469 29.02343,-64.82812 64.82812,-64.82812 35.80469,0 64.82813,29.02343 64.82813,64.82812 0,35.80469 -29.02344,64.82813 -64.82813,64.82813"
         id="path664" />
    </clipPath>
    <clipPath
       id="clip13">
      <path
         d="m 649,489 h 4 v 16 h -4 z m 0,0"
         id="path655" />
    </clipPath>
    <clipPath
       id="clip14">
      <path
         d="m 746.28906,567.83203 c 0,-45.90234 -37.21094,-83.11328 -83.11328,-83.11328 -45.90234,0 -83.11328,37.21094 -83.11328,83.11328 0,45.90234 37.21094,83.11328 83.11328,83.11328 45.90234,0 83.11328,-37.21094 83.11328,-83.11328 m -83.11328,64.82813 c -35.80469,0 -64.82812,-29.02344 -64.82812,-64.82813 0,-35.80469 29.02343,-64.82812 64.82812,-64.82812 35.80469,0 64.82813,29.02343 64.82813,64.82812 0,35.80469 -29.02344,64.82813 -64.82813,64.82813"
         id="path658" />
    </clipPath>
    <clipPath
       id="clip11">
      <path
         d="m 635,493 h 7 v 14 h -7 z m 0,0"
         id="path649" />
    </clipPath>
    <clipPath
       id="clip12">
      <path
         d="m 746.28906,567.83203 c 0,-45.90234 -37.21094,-83.11328 -83.11328,-83.11328 -45.90234,0 -83.11328,37.21094 -83.11328,83.11328 0,45.90234 37.21094,83.11328 83.11328,83.11328 45.90234,0 83.11328,-37.21094 83.11328,-83.11328 m -83.11328,64.82813 c -35.80469,0 -64.82812,-29.02344 -64.82812,-64.82813 0,-35.80469 29.02343,-64.82812 64.82812,-64.82812 35.80469,0 64.82813,29.02343 64.82813,64.82812 0,35.80469 -29.02344,64.82813 -64.82813,64.82813"
         id="path652" />
    </clipPath>
  </defs>
  <g
     id="layer1"
     transform="translate(-12.723034,-61.477489)">
    <g
       clip-path="url(#clip11)"
       clip-rule="nonzero"
       id="g7030"
       style="display:inline"
       transform="matrix(0.35277777,0,0,0.35277777,-200.66204,-110.95505)">
      <g
         clip-path="url(#clip12)"
         clip-rule="nonzero"
         id="g7028">
        <path
           style="fill:#8f8c8f;fill-opacity:1;fill-rule:nonzero;stroke:none"
           d="m 640.76172,506.98047 -4.85547,-13.34375 0.46875,-0.16797 4.85937,13.34375 c -0.15625,0.0547 -0.3164,0.11328 -0.47265,0.16797"
           id="path7026" />
      </g>
    </g>
    <g
       clip-path="url(#clip13)"
       clip-rule="nonzero"
       id="g7036"
       style="display:inline"
       transform="matrix(0.35277777,0,0,0.35277777,-200.66204,-110.95505)">
      <g
         clip-path="url(#clip14)"
         clip-rule="nonzero"
         id="g7034">
        <path
           style="fill:#8f8c8f;fill-opacity:1;fill-rule:nonzero;stroke:none"
           d="m 651.67187,504.01953 -2.46875,-13.98828 0.49219,-0.0898 2.46875,13.99218 c -0.16406,0.0312 -0.32812,0.0586 -0.49219,0.0859"
           id="path7032" />
      </g>
    </g>
    <g
       clip-path="url(#clip15)"
       clip-rule="nonzero"
       id="g7042"
       style="display:inline"
       transform="matrix(0.35277777,0,0,0.35277777,-200.66204,-110.95505)">
      <g
         clip-path="url(#clip16)"
         clip-rule="nonzero"
         id="g7040">
        <path
           style="fill:#8f8c8f;fill-opacity:1;fill-rule:nonzero;stroke:none"
           d="m 662.92578,503.00391 v -14.21875 h 0.5 v 14.21875 c -0.082,0 -0.16406,0 -0.25,0 -0.082,0 -0.16797,0 -0.25,0"
           id="path7038" />
      </g>
    </g>
    <g
       clip-path="url(#clip17)"
       clip-rule="nonzero"
       id="g7048"
       style="display:inline"
       transform="matrix(0.35277777,0,0,0.35277777,-200.66204,-110.95505)">
      <g
         clip-path="url(#clip18)"
         clip-rule="nonzero"
         id="g7046">
        <path
           style="fill:#8f8c8f;fill-opacity:1;fill-rule:nonzero;stroke:none"
           d="m 674.68359,504.01953 c -0.16406,-0.0273 -0.32812,-0.0547 -0.49609,-0.0859 l 2.46875,-13.99218 0.49219,0.0898 -2.46485,13.98828"
           id="path7044" />
      </g>
    </g>
    <g
       clip-path="url(#clip19)"
       clip-rule="nonzero"
       id="g7054"
       style="display:inline"
       transform="matrix(0.35277777,0,0,0.35277777,-200.66204,-110.95505)">
      <g
         clip-path="url(#clip20)"
         clip-rule="nonzero"
         id="g7052">
        <path
           style="fill:#8f8c8f;fill-opacity:1;fill-rule:nonzero;stroke:none"
           d="m 685.58984,506.98047 c -0.15625,-0.0547 -0.3125,-0.11328 -0.46875,-0.16797 l 4.85547,-13.34375 0.46875,0.16797 -4.85547,13.34375"
           id="path7050" />
      </g>
    </g>
    <path
       style="display:inline;fill:none;stroke:#211e1e;stroke-width:0.176389;stroke-linecap:butt;stroke-linejoin:miter;stroke-miterlimit:4;stroke-opacity:1"
       d="m 40.28242,62.858282 -0.352778,0.177767 -0.354155,-0.177767 -0.257694,0.299034 -0.394118,-0.02894 -0.125402,0.376204 -0.374826,0.124023 0.02894,0.394119 -0.300413,0.259072 0.177767,0.352777 -0.177767,0.354156 0.300413,0.257693 -0.02894,0.395497 0.374826,0.124024 0.125402,0.374826 0.394118,-0.02756 0.257694,0.299034 0.354155,-0.177766 0.352778,0.177766 0.259071,-0.299034 0.394119,0.02756 0.124024,-0.374826 0.376204,-0.124024 -0.02894,-0.395497 0.299035,-0.257693 -0.177767,-0.354156 0.177767,-0.352777 -0.299035,-0.259072 0.02894,-0.394119 -0.376204,-0.124023 -0.124024,-0.376204 -0.394119,0.02894 z m 0,0"
       id="path7056" />
    <path
       style="display:inline;fill:none;stroke:#211e1e;stroke-width:0.176389;stroke-linecap:butt;stroke-linejoin:miter;stroke-miterlimit:4;stroke-opacity:1"
       d="m 35.894747,62.046618 -0.352778,0.177767 -0.354156,-0.177767 -0.257693,0.299034 -0.394119,-0.02894 -0.125401,0.376205 -0.374827,0.124023 0.02894,0.394119 -0.300412,0.259071 0.177767,0.352778 -0.177767,0.354156 0.300412,0.259071 -0.02894,0.394118 0.374827,0.124024 0.125401,0.374826 0.394119,-0.02894 0.257693,0.300412 0.354156,-0.177767 0.352778,0.177767 0.259071,-0.300412 0.394119,0.02894 0.124023,-0.374826 0.376205,-0.124024 -0.02894,-0.394118 0.299034,-0.259071 -0.177767,-0.354156 0.177767,-0.352778 -0.299034,-0.259071 0.02894,-0.394119 -0.376205,-0.124023 -0.124023,-0.376205 -0.394119,0.02894 z m 0,0"
       id="path7058" />
    <path
       style="display:inline;fill:none;stroke:#211e1e;stroke-width:0.176389;stroke-linecap:butt;stroke-linejoin:miter;stroke-miterlimit:4;stroke-opacity:1"
       d="m 31.344465,62.261591 -0.352777,0.177767 -0.354156,-0.177767 -0.257693,0.300412 -0.394119,-0.02894 -0.125402,0.374826 -0.374826,0.124023 0.02894,0.395497 -0.300413,0.257694 0.177767,0.354155 -0.177767,0.352778 0.300413,0.259071 -0.02894,0.394119 0.374826,0.124024 0.125402,0.376204 0.394119,-0.02894 0.257693,0.299034 0.354156,-0.177766 0.352777,0.177766 0.259072,-0.299034 0.394118,0.02894 0.124024,-0.376204 0.376204,-0.124024 -0.02894,-0.394119 0.299034,-0.259071 -0.177767,-0.352778 0.177767,-0.354155 -0.299034,-0.257694 0.02894,-0.395497 -0.376204,-0.124023 -0.124024,-0.374826 -0.394118,0.02894 z m 0,0"
       id="path7060" />
    <path
       style="display:inline;fill:none;stroke:#211e1e;stroke-width:0.176389;stroke-linecap:butt;stroke-linejoin:miter;stroke-miterlimit:4;stroke-opacity:1"
       d="m 26.995377,63.005732 -0.352777,0.177767 -0.354156,-0.177767 -0.257693,0.300412 -0.394119,-0.02894 -0.125402,0.374827 -0.374826,0.125401 0.02894,0.394119 -0.300413,0.257693 0.177767,0.354156 -0.177767,0.352778 0.300413,0.259071 -0.02894,0.394119 0.374826,0.124023 0.125402,0.376204 0.394119,-0.02894 0.257693,0.299034 0.354156,-0.177767 0.352777,0.177767 0.259071,-0.299034 0.394119,0.02894 0.124024,-0.376204 0.376204,-0.124023 -0.02894,-0.394119 0.299035,-0.259071 -0.177767,-0.352778 0.177767,-0.354156 -0.299035,-0.257693 0.02894,-0.394119 -0.376204,-0.125401 -0.124024,-0.374827 -0.394119,0.02894 z m 0,0"
       id="path7062" />
    <path
       style="display:inline;fill:none;stroke:#211e1e;stroke-width:0.176389;stroke-linecap:butt;stroke-linejoin:miter;stroke-miterlimit:4;stroke-opacity:1"
       d="m 22.797873,64.509171 -0.354156,0.177767 -0.352778,-0.177767 -0.259071,0.300413 -0.394119,-0.02894 -0.124024,0.374827 -0.376204,0.124023 0.02894,0.395498 -0.299034,0.257692 0.177766,0.352778 -0.177766,0.354156 0.299034,0.259071 -0.02894,0.394119 0.376204,0.124024 0.124024,0.376204 0.394119,-0.02894 0.259071,0.299035 0.352778,-0.177767 0.354156,0.177767 0.257693,-0.299035 0.395497,0.02894 0.124023,-0.376204 0.374826,-0.124024 -0.02894,-0.394119 0.300412,-0.259071 -0.177767,-0.354156 0.177767,-0.352778 -0.300412,-0.257692 0.02894,-0.395498 -0.374826,-0.124023 -0.124023,-0.374827 -0.395497,0.02894 z m 0,0"
       id="path7064" />
    <path
       style="display:inline;fill-opacity:1;fill-rule:nonzero;stroke:none;stroke-width:0.352778"
       d="m 44.335232,64.509173 -0.352778,0.177764 -0.354157,-0.177764 -0.257694,0.300411 -0.394116,-0.02893 -0.125402,0.374827 -0.374827,0.124022 0.02893,0.395496 -0.299035,0.257694 0.176389,0.352777 -0.176389,0.354157 0.299035,0.25907 -0.02893,0.39412 0.374827,0.124022 0.125402,0.376206 0.394116,-0.02893 0.257694,0.299032 0.354157,-0.177764 0.352778,0.177764 0.259069,-0.299032 0.395499,0.02893 0.122643,-0.376206 0.376206,-0.124022 -0.02893,-0.39412 0.299032,-0.25907 -0.177764,-0.354157 0.177764,-0.352777 -0.299032,-0.257694 0.02893,-0.395496 -0.376206,-0.124022 -0.122643,-0.374827 -0.395499,0.02893"
       id="path7066" />
    <path
       style="display:inline;fill:none;stroke:#211e1e;stroke-width:0.264583;stroke-linecap:butt;stroke-linejoin:miter;stroke-miterlimit:4;stroke-opacity:1"
       d="m 44.335231,64.509171 -0.352778,0.177767 -0.354156,-0.177767 -0.257693,0.300413 -0.394119,-0.02894 -0.125401,0.374826 -0.374826,0.124023 0.02894,0.395498 -0.299034,0.257693 0.176389,0.352778 -0.176389,0.354155 0.299034,0.259071 -0.02894,0.394119 0.374826,0.124024 0.125401,0.376204 0.394119,-0.02894 0.257693,0.299035 0.354156,-0.177767 0.352778,0.177767 0.259071,-0.299035 0.395497,0.02894 0.122645,-0.376204 0.376205,-0.124024 -0.02894,-0.394119 0.299034,-0.259071 -0.177767,-0.354155 0.177767,-0.352778 -0.299034,-0.257693 0.02894,-0.395498 -0.376205,-0.124023 -0.122645,-0.374826 -0.395497,0.02894 z m 0,0"
       id="path7068" />
    <g
       style="display:inline;fill-opacity:1"
       id="g7072"
       transform="matrix(0.35277777,0,0,0.35277777,-200.66204,-110.95505)">
      <g
         id="use7070"
         transform="translate(679.30078,499.49991)">
        <path
           style="stroke:none"
           d="m 0.359375,0.09375 3.875,1.046875 L 4.5,0.171875 2.359375,-0.40625 c 1.625,-0.609375 2.5625,-1.171875 2.8125,-2.0625 0.265625,-1.03125 -0.4375,-1.875 -1.53125,-2.171875 -0.71875,-0.1875 -1.5625,-0.125 -2.234375,0.3125 L 1.859375,-3.4375 c 0.4375,-0.265625 0.953125,-0.359375 1.53125,-0.203125 0.4375,0.109375 0.78125,0.4375 0.671875,0.875 -0.171875,0.640625 -0.953125,1 -3.46875,2 z m 0,0"
           id="path7847" />
      </g>
    </g>
    <g
       style="display:inline;fill-opacity:1"
       id="g7076"
       transform="matrix(0.35277777,0,0,0.35277777,-200.66204,-110.95505)">
      <g
         id="use7074"
         transform="translate(666.59778,497.7319)">
        <path
           style="stroke:none"
           d="M 2.734375,0.234375 3.875,0.34375 3.96875,-0.765625 4.65625,-0.703125 4.75,-1.6875 4.0625,-1.75 4.34375,-4.96875 2.765625,-5.109375 0.375,-1.984375 0.296875,-1.09375 2.828125,-0.875 Z m 0.375,-4.3125 -0.1875,2.21875 L 1.5,-1.984375 Z m 0,0"
           id="path7843" />
      </g>
    </g>
    <g
       style="display:inline;fill-opacity:1"
       id="g7080"
       transform="matrix(0.35277777,0,0,0.35277777,-200.66204,-110.95505)">
      <g
         id="use7078"
         transform="translate(654.30682,498.759)">
        <path
           style="stroke:none"
           d="M 0.03125,-2.65625 C 0.171875,-1.171875 0.96875,0.015625 2.578125,-0.125 3.796875,-0.234375 4.53125,-1.109375 4.4375,-2.140625 4.34375,-3.265625 3.453125,-3.765625 2.484375,-3.6875 1.90625,-3.625 1.40625,-3.265625 1.1875,-2.890625 1.171875,-2.921875 1.171875,-2.953125 1.171875,-3 1.09375,-3.84375 1.5625,-4.59375 2.359375,-4.65625 c 0.46875,-0.046875 0.78125,0.078125 1.109375,0.328125 l 0.4375,-0.890625 c -0.421875,-0.296875 -0.984375,-0.484375 -1.625,-0.421875 -1.5625,0.125 -2.390625,1.375 -2.25,2.984375 z m 3.28125,0.671875 c 0.03125,0.375 -0.265625,0.8125 -0.890625,0.875 -0.734375,0.0625 -1.0625,-0.5 -1.15625,-1.015625 0.21875,-0.3125 0.578125,-0.5625 0.96875,-0.59375 C 2.75,-2.765625 3.25,-2.546875 3.3125,-1.984375 Z m 0,0"
           id="path7839" />
      </g>
    </g>
    <g
       style="display:inline;fill-opacity:1"
       id="g7084"
       transform="matrix(0.35277777,0,0,0.35277777,-200.66204,-110.95505)">
      <g
         id="use7082"
         transform="translate(642.58667,501.4039)">
        <path
           style="stroke:none"
           d="m -0.09375,-1.421875 c 0.265625,0.96875 1.375,1.1875 2.46875,0.890625 1.078125,-0.296875 1.9375,-1.03125 1.671875,-2 C 3.875,-3.15625 3.265625,-3.484375 2.59375,-3.546875 3.109375,-3.90625 3.46875,-4.390625 3.28125,-5.03125 3.03125,-6 1.890625,-6.109375 0.9375,-5.859375 c -0.953125,0.25 -1.875,0.921875 -1.625,1.890625 0.1875,0.640625 0.71875,0.890625 1.34375,0.9375 -0.5625,0.390625 -0.921875,0.984375 -0.75,1.609375 z M 2.21875,-4.5625 c 0.09375,0.390625 -0.40625,0.71875 -0.703125,0.859375 -0.34375,0.03125 -0.9375,0 -1.03125,-0.390625 -0.109375,-0.359375 0.1875,-0.671875 0.703125,-0.8125 0.5,-0.140625 0.921875,-0.015625 1.03125,0.34375 z m 0.703125,2.203125 c 0.09375,0.375 -0.265625,0.75 -0.796875,0.890625 -0.546875,0.140625 -1.03125,0 -1.125,-0.375 -0.125,-0.453125 0.453125,-0.828125 0.765625,-0.953125 0.328125,-0.046875 1.03125,-0.015625 1.15625,0.4375 z m 0,0"
           id="path7835" />
      </g>
    </g>
    <g
       style="display:inline;fill-opacity:1"
       id="g7090"
       transform="matrix(0.35277777,0,0,0.35277777,-200.66204,-110.95505)">
      <g
         id="use7086"
         transform="translate(630.07562,506.55099)">
        <path
           style="stroke:none"
           d="M 1.453125,-0.6875 2.5,-1.171875 0.25,-6 -0.65625,-5.578125 -1.453125,-3.34375 -0.578125,-3 -0.1875,-4.203125 Z m 0,0"
           id="path7831" />
      </g>
      <g
         id="use7088"
         transform="translate(632.69305,505.33044)">
        <path
           style="stroke:none"
           d="m -0.890625,-2.515625 c 0.578125,1.25 1.796875,2.1875 3.1875,1.546875 1.375,-0.640625 1.40625,-2.171875 0.828125,-3.421875 -0.578125,-1.265625 -1.796875,-2.203125 -3.171875,-1.5625 -1.390625,0.640625 -1.421875,2.171875 -0.84375,3.4375 z m 2.96875,-1.390625 c 0.40625,0.875 0.46875,1.71875 -0.21875,2.03125 C 1.171875,-1.546875 0.5625,-2.125 0.15625,-3 -0.25,-3.890625 -0.296875,-4.71875 0.390625,-5.046875 c 0.6875,-0.3125 1.28125,0.25 1.6875,1.140625 z m 0,0"
           id="path7827" />
      </g>
    </g>
    <g
       style="display:inline;fill:#ffffff;fill-opacity:1"
       id="g7096"
       transform="matrix(0.35277777,0,0,0.35277777,-200.66204,-110.95505)">
      <g
         id="use7092"
         transform="translate(688.88483,503.17401)">
        <path
           style="stroke:none"
           d="M 1.453125,0.6875 2.5,1.171875 4.75,-3.65625 3.84375,-4.078125 1.609375,-3.25 l 0.3125,0.875 1.171875,-0.453125 z m 0,0"
           id="path7823" />
      </g>
      <g
         id="use7094"
         transform="translate(691.50226,504.39453)">
        <path
           style="stroke:none"
           d="M 1.359375,-2.296875 C 0.78125,-1.046875 0.8125,0.484375 2.203125,1.125 3.578125,1.765625 4.796875,0.828125 5.375,-0.421875 5.953125,-1.6875 5.921875,-3.21875 4.546875,-3.859375 3.15625,-4.5 1.9375,-3.5625 1.359375,-2.296875 Z m 2.96875,1.390625 c -0.40625,0.875 -1,1.4375 -1.6875,1.125 C 1.953125,-0.109375 2,-0.9375 2.40625,-1.8125 2.8125,-2.703125 3.421875,-3.28125 4.109375,-2.953125 c 0.6875,0.3125 0.625,1.15625 0.21875,2.046875 z m 0,0"
           id="path7819" />
      </g>
    </g>
    <g
       style="display:inline;fill-opacity:1"
       id="g7100"
       transform="matrix(0.35277777,0,0,0.35277777,-200.66204,-110.95505)">
      <g
         id="use7098"
         transform="translate(691.18378,495.8309)">
        <path
           style="stroke:none"
           d="M 1.5,0 H 2.5625 V -4.9375 H 1.640625 L 0.078125,-3.375 0.6875,-2.75 1.5,-3.578125 Z m 0,0"
           id="path7859" />
      </g>
    </g>
    <g
       style="display:inline;fill-opacity:1"
       id="g7106"
       transform="matrix(0.35277777,0,0,0.35277777,-200.66204,-110.95505)">
      <g
         id="use7102"
         transform="translate(694.22968,494.3479)">
        <path
           style="stroke:none"
           d="m 0.125,-0.375 c 0.296875,0.28125 0.78125,0.453125 1.28125,0.453125 0.796875,0 1.234375,-0.390625 1.234375,-0.921875 0,-0.71875 -0.65625,-0.84375 -1.140625,-0.9375 -0.328125,-0.0625 -0.546875,-0.125 -0.546875,-0.3125 0,-0.15625 0.171875,-0.265625 0.4375,-0.265625 0.359375,0 0.6875,0.15625 0.859375,0.328125 L 2.546875,-2.546875 C 2.265625,-2.765625 1.875,-2.9375 1.390625,-2.9375 c -0.75,0 -1.171875,0.421875 -1.171875,0.90625 0,0.6875 0.640625,0.796875 1.125,0.890625 0.328125,0.0625 0.578125,0.140625 0.578125,0.34375 0,0.171875 -0.15625,0.28125 -0.484375,0.28125 -0.359375,0 -0.78125,-0.1875 -0.984375,-0.390625 z m 0,0"
           id="path7855" />
      </g>
      <g
         id="use7104"
         transform="translate(697.05768,494.3479)">
        <path
           style="stroke:none"
           d="m 1.328125,0.078125 c 0.3125,0 0.515625,-0.09375 0.625,-0.1875 L 1.796875,-0.6875 c -0.03125,0.046875 -0.140625,0.09375 -0.25,0.09375 -0.171875,0 -0.265625,-0.140625 -0.265625,-0.3125 v -1.296875 h 0.578125 v -0.65625 H 1.28125 v -0.78125 H 0.515625 v 0.78125 h -0.46875 v 0.65625 h 0.46875 v 1.5 c 0,0.5 0.296875,0.78125 0.8125,0.78125 z m 0,0"
           id="path7851" />
      </g>
    </g>
    <g
       style="display:inline;fill-opacity:1"
       id="g7110"
       transform="matrix(0.35277777,0,0,0.35277777,-200.66204,-110.95505)">
      <g
         id="use7108"
         transform="translate(621.97662,501.34698)">
        <path
           style="stroke:none"
           d="m 1.109375,-3.421875 c 0.375,0 0.59375,-0.265625 0.59375,-0.625 0,-0.359375 -0.234375,-0.625 -0.578125,-0.625 -0.359375,0 -0.609375,0.265625 -0.609375,0.625 0,0.359375 0.25,0.625 0.59375,0.625 z m 0,3.53125 c 0.375,0 0.59375,-0.265625 0.59375,-0.625 0,-0.359375 -0.234375,-0.625 -0.578125,-0.625 -0.359375,0 -0.609375,0.265625 -0.609375,0.625 0,0.359375 0.25,0.625 0.59375,0.625 z m 0,0"
           id="path7863" />
      </g>
    </g>
    <path
       style="display:inline;fill:none;stroke:#211e1e;stroke-width:0.264583;stroke-linecap:butt;stroke-linejoin:miter;stroke-miterlimit:4;stroke-opacity:1"
       d="m 19.148827,64.702097 c 0.130914,0 0.212218,-0.09508 0.212218,-0.21773 -0.0041,-0.130914 -0.08544,-0.223242 -0.208084,-0.223242 -0.124023,0 -0.212218,0.09233 -0.212218,0.223242 0,0.122645 0.08406,0.21773 0.208084,0.21773 z m 0,0"
       id="path7112" />
    <path
       style="display:inline;fill:none;stroke:#211e1e;stroke-width:0.264583;stroke-linecap:butt;stroke-linejoin:miter;stroke-miterlimit:4;stroke-opacity:1"
       d="m 19.148827,65.947843 c 0.130914,0 0.212218,-0.09509 0.212218,-0.219108 -0.0041,-0.129536 -0.08544,-0.221864 -0.208084,-0.221864 -0.124023,0 -0.212218,0.09233 -0.212218,0.221864 0,0.124023 0.08406,0.219108 0.208084,0.219108 z m 0,0"
       id="path7114" />
    <path
       style="display:inline;fill-opacity:1;fill-rule:nonzero;stroke:none;stroke-width:0.352778"
       d="m 15.871851,65.895476 -1.555803,-2.247578 h 0.278363 l 1.555806,2.247578 z m 0.525036,0 -0.868165,-1.255391 0.0069,0.0055 0.677993,-0.997698 h 0.292146 l -0.0083,-0.206706 h -0.937066 l 0.0069,0.206706 h 0.38723 l -0.547081,0.815799 -0.564994,-0.815799 h 0.293521 l -0.0069,-0.206706 h -1.324296 l 0.0069,0.206706 h 0.256314 l 0.851631,1.229209 -0.687642,1.01837 h -0.341753 l 0.0069,0.206707 h 0.983918 l -0.0069,-0.206707 H 14.49243 l 0.55397,-0.835088 0.577399,0.835088 h -0.23978 l 0.0083,0.206707 h 1.198894 l -0.0069,-0.206707 z m -1.172711,1.090031 c -1.208539,0 -2.189702,-0.982543 -2.189702,-2.189702 0,-1.208543 0.981163,-2.189706 2.189702,-2.189706 1.207159,0 2.188323,0.981163 2.188323,2.189706 0,1.207159 -0.981164,2.189702 -2.188323,2.189702 m 0,-4.690844 c -1.379418,0 -2.501142,1.121724 -2.501142,2.501142 0,1.378038 1.121724,2.499758 2.501142,2.499758 1.378038,0 2.499758,-1.12172 2.499758,-2.499758 0,-1.379418 -1.12172,-2.501142 -2.499758,-2.501142"
       id="path7116" />
  </g>
</svg>
