<?xml version="1.0" encoding="UTF-8" standalone="no"?>
<!-- Created with Inkscape (http://www.inkscape.org/) -->

<svg
   width="9.2540665mm"
   height="9.2537136mm"
   viewBox="0 0 9.2540665 9.2537136"
   version="1.1"
   id="svg437"
   xmlns="http://www.w3.org/2000/svg"
   xmlns:svg="http://www.w3.org/2000/svg">
  <defs
     id="defs434">
    <clipPath
       clipPathUnits="userSpaceOnUse"
       id="clipPath328">
      <path
         d="m 327.142,613.441 h 28.346 v 28.346 h -28.346 z"
         id="path326" />
    </clipPath>
  </defs>
  <path
     d="m 4.62703,6.1468 c -0.83926,0 -1.51977,-0.680508 -1.51977,-1.519767 0,-0.839611 0.68051,-1.520119 1.51977,-1.520119 0.83926,0 1.51977,0.680508 1.51977,1.520119 0,0.839259 -0.68051,1.519767 -1.51977,1.519767 M 9.25406,4.328231 H 8.06979 C 7.92691,2.649714 6.60294,1.31445 4.92548,1.156758 V 0 H 4.32858 V 1.741311 H 4.65702 C 6.23393,1.759661 7.49758,3.052586 7.47959,4.629856 7.46129,6.206772 6.16796,7.470422 4.59105,7.452431 3.01413,7.434091 1.75013,6.141156 1.76847,4.563886 1.78187,3.410656 2.48743,2.378428 3.55741,1.947686 L 3.33092,1.395589 C 2.11949,1.889831 1.28905,3.024011 1.18427,4.328231 H 0 v 0.597252 h 1.18427 c 0.14182,1.679575 1.46615,3.01625 3.14431,3.173942 v 1.154289 h 0.5969 V 8.099425 C 6.60364,7.941733 7.92797,6.605058 8.06979,4.925483 h 1.18427 z"
     style="fill:#221f20;fill-opacity:1;fill-rule:nonzero;stroke:none;stroke-width:0.352778"
     id="path332" />
</svg>
