<?xml version="1.0" encoding="UTF-8" standalone="no"?>
<!-- Created with Inkscape (http://www.inkscape.org/) -->

<svg
   width="9.8391924mm"
   height="9.8447046mm"
   viewBox="0 0 9.8391924 9.8447046"
   version="1.1"
   id="svg6375"
   xmlns="http://www.w3.org/2000/svg"
   xmlns:svg="http://www.w3.org/2000/svg">
  <defs
     id="defs6372" />
  <path
     style="fill:#171930;fill-opacity:1;stroke:none;stroke-width:0.352778"
     d="M 4.9223488,5.3925e-6 C 2.1993454,5.3925e-6 -3.4929688e-6,2.2048665 -3.4929688e-6,4.9223577 -3.4929688e-6,7.639849 2.1993454,9.84471 4.9223488,9.84471 7.6398401,9.84471 9.839189,7.639849 9.839189,4.9223577 9.839189,2.2048665 7.6398401,5.3925e-6 4.9223488,5.3925e-6 Z m 0,8.8911022075 c -2.204861,0 -3.96874988,-1.769401 -3.96874988,-3.9687499 0,-2.1828124 1.76388888,-3.9687499 3.96874988,-3.9687499 2.1773003,0 3.9632378,1.7859375 3.9632378,3.9687499 0,2.1993489 -1.7859375,3.9687499 -3.9632378,3.9687499 z M 6.1295103,6.8240504 c 0.1212673,0.082682 0.2590711,0.060634 0.3362413,-0.055122 L 6.8460901,6.2728351 C 6.9232602,6.1515678 6.9012116,6.0137639 6.7854564,5.9310817 L 5.4735641,4.9609428 v -2.81671 c 0,-0.1212674 -0.1157552,-0.2370226 -0.2370226,-0.2370226 H 4.602644 c -0.1378038,0 -0.2370226,0.1157552 -0.2370226,0.2370226 v 3.2742187 c 0,0.060634 0.016535,0.1378038 0.07717,0.1763888 z m 0,0"
     id="path6399" />
</svg>
